<svg xmlns="http://www.w3.org/2000/svg" viewBox="0 0 1200 630" fill="none">
  <defs>
    <linearGradient id="og-bg" x1="0" y1="0" x2="1200" y2="630" gradientUnits="userSpaceOnUse">
      <stop offset="0%" stop-color="#0f172a"/>
      <stop offset="100%" stop-color="#1e293b"/>
    </linearGradient>
  </defs>

  <!-- Background -->
  <rect width="1200" height="630" fill="url(#og-bg)"/>

  <!-- Subtle grid -->
  <pattern id="og-grid" width="40" height="40" patternUnits="userSpaceOnUse">
    <line x1="40" y1="0" x2="40" y2="40" stroke="#059669" stroke-width="0.3" opacity="0.07"/>
    <line x1="0" y1="40" x2="40" y2="40" stroke="#059669" stroke-width="0.3" opacity="0.07"/>
  </pattern>
  <rect width="1200" height="630" fill="url(#og-grid)"/>

  <!-- Logo icon (centered, large) -->
  <g transform="translate(556, 120)">
    <circle cx="44" cy="44" r="30" stroke="#34d399" stroke-width="3.5" fill="none"/>
    <path d="M44 74 L44 82" stroke="#34d399" stroke-width="3.5" stroke-linecap="round"/>
    <circle cx="44" cy="85" r="3" fill="#34d399"/>
    <path d="M44 28 C38 34, 35 41, 39 47 C41 50, 44 50, 44 50 C44 50, 47 50, 49 47 C53 41, 50 34, 44 28Z" fill="#34d399" opacity="0.9"/>
  </g>

  <!-- Wordmark -->
  <text x="600" y="290" text-anchor="middle" font-family="system-ui, -apple-system, sans-serif" font-weight="800" font-size="56" letter-spacing="-2">
    <tspan fill="#ffffff">Docto</tspan><tspan fill="#34d399">Pal</tspan>
  </text>

  <!-- Tagline -->
  <text x="600" y="340" text-anchor="middle" font-family="system-ui, -apple-system, sans-serif" font-weight="400" font-size="22" fill="#94a3b8">
    Evidence Meets Nature. AI Meets You.
  </text>

  <!-- Trust pills -->
  <g transform="translate(220, 400)">
    <rect x="0" y="0" width="150" height="32" rx="16" fill="#059669" fill-opacity="0.1" stroke="#059669" stroke-width="0.8" stroke-opacity="0.3"/>
    <text x="75" y="21" text-anchor="middle" font-family="system-ui, sans-serif" font-size="12" fill="#6ee7b7">PubMed Verified</text>

    <rect x="170" y="0" width="150" height="32" rx="16" fill="#059669" fill-opacity="0.1" stroke="#059669" stroke-width="0.8" stroke-opacity="0.3"/>
    <text x="245" y="21" text-anchor="middle" font-family="system-ui, sans-serif" font-size="12" fill="#6ee7b7">166+ Health Tools</text>

    <rect x="340" y="0" width="150" height="32" rx="16" fill="#059669" fill-opacity="0.1" stroke="#059669" stroke-width="0.8" stroke-opacity="0.3"/>
    <text x="415" y="21" text-anchor="middle" font-family="system-ui, sans-serif" font-size="12" fill="#6ee7b7">FHIR Compatible</text>

    <rect x="510" y="0" width="170" height="32" rx="16" fill="#059669" fill-opacity="0.1" stroke="#059669" stroke-width="0.8" stroke-opacity="0.3"/>
    <text x="595" y="21" text-anchor="middle" font-family="system-ui, sans-serif" font-size="12" fill="#6ee7b7">Powered by Claude AI</text>
  </g>

  <!-- URL -->
  <text x="600" y="530" text-anchor="middle" font-family="system-ui, sans-serif" font-weight="500" font-size="16" fill="#059669" opacity="0.5">
    doctopal.com
  </text>

  <!-- Bottom accent -->
  <rect x="0" y="624" width="1200" height="6" fill="#059669" opacity="0.5"/>
</svg>
